<?xml version="1.0" standalone="no"?>
<!DOCTYPE svg PUBLIC "-//W3C//DTD SVG 20010904//EN"
 "http://www.w3.org/TR/2001/REC-SVG-20010904/DTD/svg10.dtd">
<svg version="1.0" xmlns="http://www.w3.org/2000/svg"
 width="300.000000pt" height="300.000000pt" viewBox="0 0 300.000000 300.000000"
 preserveAspectRatio="xMidYMid meet">
<metadata>
Created by potrace 1.10, written by Peter Selinger 2001-2011
</metadata>
<g transform="translate(0.000000,300.000000) scale(0.100000,-0.100000)"
fill="#000000" stroke="none">
<path d="M1335 2401 c-115 -22 -264 -85 -361 -152 -161 -110 -292 -294 -356
-499 -20 -67 -23 -95 -23 -250 0 -155 3 -183 23 -250 51 -161 147 -318 259
-420 50 -46 164 -130 177 -130 2 0 15 24 29 53 29 64 114 159 173 193 44 26
56 44 30 44 -8 0 -16 5 -18 12 -3 7 -34 12 -89 12 -77 1 -89 4 -121 28 -42 32
-58 83 -58 187 0 55 -3 71 -14 71 -27 0 -73 49 -91 96 -22 59 -10 106 40 155
l35 34 0 175 c0 163 -1 177 -20 193 -34 29 -22 69 30 97 15 8 25 5 45 -12 30
-26 33 -67 5 -91 -19 -16 -20 -29 -20 -186 0 -94 4 -172 9 -175 5 -3 23 24 40
60 37 79 141 187 214 223 156 76 350 68 488 -20 70 -45 152 -137 185 -206 15
-35 32 -63 36 -63 4 0 7 78 7 174 0 160 -1 175 -19 191 -27 25 -26 70 2 89 30
21 50 20 76 -4 27 -26 28 -50 2 -78 -18 -19 -20 -35 -20 -196 0 -172 0 -176
23 -191 13 -8 34 -34 47 -56 21 -39 22 -45 10 -93 -13 -52 -64 -116 -93 -116
-11 0 -16 -21 -19 -92 -5 -107 -21 -146 -73 -178 -29 -18 -47 -21 -108 -19
-63 3 -76 0 -96 -18 l-22 -20 44 -26 c60 -36 145 -131 173 -194 13 -29 26 -53
29 -53 21 0 143 96 210 165 147 150 239 348 252 540 5 73 3 96 -5 91 -7 -4
-12 -21 -12 -37 0 -57 -40 -226 -69 -294 -36 -82 -74 -155 -82 -155 -5 0 -9
-6 -9 -14 0 -7 -10 -24 -22 -38 -13 -14 -41 -45 -62 -69 -22 -24 -70 -67 -108
-96 -66 -50 -69 -52 -89 -35 -11 9 -26 31 -34 49 -13 32 -59 82 -129 141 -21
18 -36 35 -33 38 2 2 39 7 82 9 80 5 114 18 148 59 29 34 36 60 38 138 2 83 6
98 24 98 17 0 67 66 81 107 20 56 5 114 -41 163 l-33 35 -1 152 c-2 117 2 160
14 189 22 52 19 81 -11 109 -28 26 -64 33 -64 13 0 -6 -3 -8 -7 -5 -9 10 -53
-41 -53 -61 0 -9 7 -30 15 -46 12 -22 15 -58 14 -138 -1 -59 -6 -108 -10 -108
-5 0 -9 3 -9 8 0 18 -136 144 -187 173 -202 116 -448 79 -621 -92 -37 -37 -72
-75 -79 -85 -21 -33 -17 204 3 246 20 40 11 74 -28 103 -34 26 -73 16 -97 -24
-19 -31 -18 -53 6 -99 9 -17 13 -71 13 -177 0 -150 0 -152 -26 -180 -64 -69
-74 -142 -30 -217 15 -25 30 -46 35 -46 16 0 52 -43 47 -56 -3 -7 -1 -47 3
-87 14 -122 76 -178 194 -173 78 3 88 -6 46 -41 -65 -53 -106 -98 -143 -156
l-37 -59 -27 18 c-36 23 -109 83 -143 116 -66 66 -151 190 -170 246 -6 19 -17
46 -25 60 -8 15 -14 35 -14 45 0 9 -4 17 -8 17 -9 0 -42 208 -42 266 0 23 7
81 16 130 8 49 16 97 17 107 1 9 5 17 9 17 4 0 8 7 8 16 0 29 61 159 105 224
24 36 64 86 88 111 49 50 130 119 141 119 4 0 16 8 27 19 11 10 63 37 117 60
240 102 474 104 713 5 58 -25 115 -53 127 -64 12 -11 24 -20 27 -20 26 0 225
-198 225 -223 0 -9 46 -57 55 -57 10 0 -14 45 -55 101 -108 148 -273 263 -470
327 -63 20 -99 24 -230 27 -85 2 -173 0 -195 -4z"/>
<path d="M2209 1915 c-88 -46 -135 -150 -110 -243 12 -42 80 -124 111 -134 12
-4 9 -12 -13 -41 -34 -45 -23 -47 41 -7 l48 30 166 -6 c181 -6 228 1 291 42
45 29 87 109 87 165 0 87 -48 162 -126 199 -40 18 -63 20 -246 20 -194 -1
-205 -2 -249 -25z m434 -15 c28 1 37 -2 31 -11 -5 -9 -2 -10 9 -6 9 3 23 0 31
-8 8 -8 20 -15 26 -15 6 0 8 -4 5 -10 -3 -5 -2 -10 4 -10 6 0 18 -17 28 -37
23 -50 20 -118 -6 -154 -12 -16 -21 -33 -21 -38 0 -5 -17 -20 -37 -33 -34 -20
-50 -23 -143 -23 -58 0 -108 -4 -111 -9 -4 -4 -16 -3 -28 3 -14 8 -21 8 -21 1
0 -6 -27 -10 -62 -11 -35 0 -72 -4 -82 -8 -14 -5 -27 1 -50 23 -17 17 -30 34
-29 38 2 4 -2 7 -9 5 -7 -1 -12 3 -13 10 0 7 -8 18 -19 26 -21 15 -32 87 -21
143 4 26 21 50 56 84 l49 46 187 -3 c104 -2 205 -4 226 -3z"/>
<path d="M2274 1846 c-16 -12 -20 -30 -24 -105 -3 -50 -3 -91 0 -91 3 0 11
-13 18 -30 8 -16 21 -30 30 -30 20 1 62 34 62 49 0 19 12 12 40 -20 23 -29 28
-31 49 -20 18 10 29 10 53 0 24 -10 31 -10 38 1 7 12 35 11 70 -3 8 -4 25 2
37 12 17 14 20 24 15 46 -4 15 -4 53 1 84 15 94 -17 141 -75 108 -26 -15 -28
-15 -37 1 -8 15 -14 15 -42 5 -21 -8 -38 -9 -50 -3 -27 15 -36 12 -65 -17
l-27 -27 -21 27 c-24 30 -43 34 -72 13z m54 -54 l3 -42 44 0 c44 0 44 0 39 33
-6 38 8 62 30 54 14 -6 16 -22 14 -109 -3 -95 -4 -103 -23 -103 -17 0 -20 7
-21 44 l-1 44 -43 0 -43 0 -1 -44 c-1 -37 -4 -44 -21 -44 -18 0 -20 8 -23 94
-3 107 1 124 25 119 13 -2 19 -15 21 -46z m217 26 c3 -13 5 -61 3 -108 -3 -77
-5 -85 -23 -85 -18 0 -20 8 -23 94 -1 52 -1 100 2 108 8 21 35 15 41 -9z m93
-23 c5 -54 -6 -105 -22 -105 -14 0 -29 110 -19 137 11 29 38 9 41 -32z m0
-153 c3 -16 -2 -22 -17 -22 -26 0 -36 17 -20 36 16 19 33 13 37 -14z"/>
<path d="M1417 1790 c-87 -22 -179 -85 -228 -157 -54 -78 -68 -134 -70 -288
l-2 -139 27 -23 27 -23 329 0 329 0 27 23 27 23 -2 142 c-2 150 -11 190 -56
268 -75 128 -266 209 -408 174z m203 -45 c24 -8 47 -19 50 -23 3 -5 22 -18 43
-31 20 -12 37 -30 37 -38 0 -9 3 -13 6 -10 7 7 44 -36 44 -51 0 -5 7 -15 16
-23 8 -7 13 -21 11 -30 -3 -10 0 -20 6 -22 14 -4 21 -287 7 -287 -6 0 -10 -7
-10 -15 0 -13 -43 -15 -329 -15 l-329 0 -7 23 c-4 12 -6 30 -5 41 1 12 -2 16
-11 11 -7 -5 -10 -4 -6 1 3 5 6 50 7 99 2 50 7 106 13 125 14 48 40 100 50
100 4 0 6 4 3 8 -6 9 48 72 62 72 5 0 13 7 16 16 3 8 10 13 15 10 5 -3 12 1
15 9 3 8 9 14 13 13 4 -1 18 3 31 10 12 7 22 11 22 8 0 -3 15 2 33 10 39 17
131 13 197 -11z"/>
<path d="M1650 1587 c-39 -18 -50 -38 -47 -88 2 -40 5 -45 21 -41 11 3 17 1
13 -4 -3 -6 8 -10 26 -10 38 1 88 54 80 85 -4 16 -57 73 -65 70 -2 0 -14 -6
-28 -12z m48 -33 c27 -19 28 -45 3 -68 -46 -41 -107 18 -66 64 22 24 33 25 63
4z"/>
<path d="M1289 1571 c-39 -30 -41 -55 -11 -93 28 -34 40 -38 82 -24 32 11 40
23 40 61 -1 63 -63 94 -111 56z m76 -21 c41 -46 -20 -105 -66 -64 -25 23 -24
49 3 68 30 21 41 20 63 -4z"/>
<path d="M1363 1418 c-13 -16 -23 -69 -13 -63 5 3 13 -7 19 -23 17 -45 36 -62
90 -78 39 -11 56 -12 72 -4 11 6 30 13 41 15 24 5 45 29 59 67 6 16 14 26 19
23 12 -7 -2 48 -16 62 -18 18 -257 18 -271 1z m265 -30 c5 -24 -41 -82 -81
-101 -60 -30 -128 -3 -163 65 -26 50 -18 53 117 52 100 -1 125 -4 127 -16z"/>
<path d="M332 477 c-49 -52 -34 -175 25 -198 53 -20 134 8 114 40 -7 11 -14
11 -46 0 -35 -13 -38 -12 -56 10 -21 26 -25 81 -8 113 10 18 17 20 60 14 44
-6 49 -5 49 13 0 23 -19 31 -74 31 -31 0 -48 -6 -64 -23z"/>
<path d="M510 396 c0 -111 8 -131 51 -124 30 4 37 28 10 35 -19 5 -21 12 -21
99 0 87 -1 94 -20 94 -19 0 -20 -7 -20 -104z"/>
<path d="M610 479 c0 -15 5 -20 22 -17 34 5 37 38 4 38 -20 0 -26 -5 -26 -21z"/>
<path d="M857 493 c-6 -11 -8 -204 -2 -213 3 -5 14 -6 25 -3 15 4 20 14 20 42
l1 36 20 -24 c11 -13 23 -30 27 -36 8 -14 62 -29 62 -17 0 5 -16 28 -36 51
l-37 42 33 34 c19 19 32 37 29 39 -13 13 -58 -10 -75 -37 l-19 -32 -3 63 c-3
53 -6 62 -22 62 -10 0 -21 -3 -23 -7z"/>
<path d="M2210 390 c0 -91 3 -110 15 -110 27 0 29 4 30 65 0 58 1 60 27 63 27
3 27 3 30 -65 3 -60 5 -68 23 -68 18 0 20 8 23 72 3 68 1 73 -23 89 -21 14
-31 15 -51 5 -34 -15 -34 -15 -34 24 0 28 -4 35 -20 35 -19 0 -20 -7 -20 -110z"/>
<path d="M2715 423 c4 -43 9 -80 11 -82 2 -2 10 -1 19 2 12 5 15 23 15 82 0
74 0 75 -26 75 l-25 0 6 -77z"/>
<path d="M1667 483 c-4 -3 -7 -16 -7 -29 0 -12 -7 -24 -15 -28 -8 -3 -15 -10
-15 -16 0 -5 7 -10 15 -10 12 0 15 -13 15 -55 0 -49 3 -57 24 -66 33 -15 78
-4 74 19 -2 10 -13 17 -28 17 -22 0 -25 5 -28 42 -3 39 -1 42 25 45 37 4 37
32 1 36 -22 3 -28 9 -28 28 0 23 -18 32 -33 17z"/>
<path d="M2593 483 c-7 -2 -13 -16 -13 -29 0 -13 -4 -24 -10 -24 -5 0 -10 -7
-10 -15 0 -8 5 -15 10 -15 6 0 10 -22 10 -49 0 -32 6 -55 16 -65 17 -17 51
-21 73 -7 20 13 8 36 -20 36 -21 0 -24 5 -26 43 -1 40 0 42 29 42 23 0 29 4
26 18 -2 10 -13 17 -28 17 -21 1 -25 5 -22 28 3 27 -7 32 -35 20z"/>
<path d="M715 425 c-35 -34 -35 -96 0 -130 26 -27 49 -31 90 -15 38 15 26 36
-18 32 -31 -3 -38 0 -48 22 -9 20 -9 32 0 52 10 23 16 25 45 20 40 -8 58 17
26 34 -32 17 -70 11 -95 -15z"/>
<path d="M1114 437 c-3 -8 -4 -47 -2 -88 3 -66 5 -74 23 -74 18 0 20 8 23 68
3 64 4 67 27 67 24 0 25 -3 25 -65 0 -51 3 -65 15 -65 8 0 18 -1 22 -2 4 -2 8
26 8 62 0 63 1 65 25 65 24 0 25 -3 28 -62 3 -55 6 -63 22 -63 18 0 20 7 20
69 0 91 -26 120 -81 91 -13 -8 -25 -7 -40 1 -16 8 -28 8 -46 0 -17 -8 -30 -8
-44 -1 -15 8 -21 7 -25 -3z"/>
<path d="M1430 443 c-8 -3 -21 -12 -27 -21 -17 -20 -17 -103 0 -125 25 -36
145 -29 131 7 -4 10 -20 14 -52 13 -37 -2 -47 2 -50 16 -3 15 5 17 54 17 l57
0 -7 33 c-10 52 -55 78 -106 60z m60 -49 c0 -9 -11 -14 -30 -14 -33 0 -39 14
-13 28 21 12 43 5 43 -14z"/>
<path d="M1811 438 c-47 -25 -50 -125 -5 -155 30 -19 93 -11 111 14 18 23 17
117 -1 132 -22 18 -78 23 -105 9z m75 -53 c3 -14 3 -37 0 -51 -5 -20 -12 -25
-34 -22 -23 2 -28 8 -30 36 -5 47 3 62 32 62 19 0 27 -7 32 -25z"/>
<path d="M2080 437 c-33 -17 -48 -82 -29 -123 17 -35 68 -52 104 -36 42 19 32
41 -17 39 l-43 -2 0 45 0 45 37 0 c45 0 59 12 34 31 -24 17 -53 18 -86 1z"/>
<path d="M2417 443 c-10 -3 -17 -12 -15 -21 3 -13 13 -16 46 -14 32 3 42 0 42
-11 0 -9 -14 -16 -41 -20 -45 -6 -59 -19 -59 -54 0 -45 62 -71 90 -38 11 13
14 13 26 -2 22 -31 32 -3 27 75 -5 66 -8 74 -30 83 -25 9 -55 10 -86 2z m71
-110 c-4 -20 -35 -30 -50 -15 -15 15 0 32 28 32 19 0 25 -5 22 -17z"/>
<path d="M610 360 c0 -64 3 -80 15 -80 8 0 18 0 22 0 4 0 8 36 8 80 1 77 0 80
-22 80 -22 0 -23 -3 -23 -80z"/>
<path d="M2710 301 c0 -12 9 -20 25 -23 21 -4 25 -1 25 18 0 19 -5 24 -25 24
-18 0 -25 -5 -25 -19z"/>
</g>
</svg>
